<?xml version="1.0" encoding="utf-8"?>
<!-- Generator: Adobe Illustrator 23.0.5, SVG Export Plug-In . SVG Version: 6.00 Build 0)  -->
<svg version="1.1" xmlns="http://www.w3.org/2000/svg" xmlns:xlink="http://www.w3.org/1999/xlink" x="0px" y="0px"
	 viewBox="0 0 425.2 425.2" style="enable-background:new 0 0 425.2 425.2;" xml:space="preserve">
<style type="text/css">
	.st0{fill:url(#SVGID_1_);}
	.st1{fill:url(#SVGID_2_);}
	.st2{fill:url(#SVGID_3_);}
	.st3{fill:url(#SVGID_4_);}
	.st4{fill:url(#SVGID_5_);}
	.st5{clip-path:url(#SVGID_8_);fill:#345866;}
	.st6{clip-path:url(#SVGID_11_);fill:#A292A6;}
	.st7{fill:url(#SVGID_12_);}
	.st8{clip-path:url(#SVGID_15_);fill:#FC6A6A;}
	.st9{fill:#48E888;}
	.st10{fill:url(#SVGID_16_);}
	.st11{clip-path:url(#SVGID_18_);fill:#AAE6F9;}
	.st12{clip-path:url(#SVGID_21_);fill:#595959;}
	.st13{opacity:0.06;}
	.st14{clip-path:url(#SVGID_27_);}
	.st15{opacity:0.55;clip-path:url(#SVGID_29_);}
	.st16{fill:url(#SVGID_38_);}
	.st17{clip-path:url(#SVGID_40_);fill:url(#SVGID_41_);}
	.st18{clip-path:url(#SVGID_40_);fill:url(#SVGID_42_);}
	.st19{fill:url(#SVGID_43_);}
	.st20{opacity:0.55;clip-path:url(#SVGID_45_);fill:#F2E7AD;}
	.st21{fill:#F29B4B;}
</style>
<g id="piala">
	<linearGradient id="SVGID_1_" gradientUnits="userSpaceOnUse" x1="393.7965" y1="191.7021" x2="338.6693" y2="188.6679">
		<stop  offset="0" style="stop-color:#F9E638"/>
		<stop  offset="0.1671" style="stop-color:#F8E039"/>
		<stop  offset="0.3843" style="stop-color:#F7D03E"/>
		<stop  offset="0.628" style="stop-color:#F4B544"/>
		<stop  offset="0.821" style="stop-color:#F29B4B"/>
	</linearGradient>
	<path class="st0" d="M379.45,162.85c-2-2.45-2.48-2.35-3.86-3.09c-3.38-1.01-13.57-1.44-23.17-0.33c-0.84,0.1-5.54,2.51-9.56,5.64
		c-16.28,12.7-14.96,48.54-3.38,54.24c2.23,1.1,4.96,1.14,6.56,1.16c7.34,0.11,12.71-3.7,15.54-5.71c0.85-0.61,4.58-3.31,8.25-8.25
		c3.48-4.68,4.89-8.67,7.19-15.33c0,0,3.2-9.27,3.91-22.1C381.02,167.42,381.11,164.88,379.45,162.85z M363.22,188.17
		c-1.9,5.08-2.85,7.61-4.23,9.62c-1.13,1.63-2.84,4.06-5.97,6.08c-2.49,1.6-5.78,3.72-7.88,2.64c-4.92-2.53,0.61-20.69,1.59-23.9
		c1.79-5.88,2.91-8.91,5.39-9.2c4.03-0.48,9.17-0.59,10.52-0.05c0.52,0.23,1.41,0.73,2.01,1.69c0.46,0.74,0.59,1.49,0.63,2.11
		C365.59,181.82,363.22,188.17,363.22,188.17z"/>
	<linearGradient id="SVGID_2_" gradientUnits="userSpaceOnUse" x1="296.536" y1="259.7101" x2="319.1096" y2="252.1478">
		<stop  offset="0" style="stop-color:#F9E638"/>
		<stop  offset="0.3755" style="stop-color:#F6C341"/>
		<stop  offset="0.7582" style="stop-color:#F3A648"/>
		<stop  offset="0.9766" style="stop-color:#F29B4B"/>
	</linearGradient>
	<path class="st1" d="M294.55,245.53c0.09,2.25-0.04,6.31-1.9,10.89c-1.92,4.72-4.78,7.76-6.45,9.3c12.23,0,24.46,0,36.69,0
		c-1.63-1.69-3.69-4.19-5.39-7.61c-2.6-5.23-3.1-10.06-3.17-12.9C307.73,245.32,301.14,245.43,294.55,245.53z"/>
	<linearGradient id="SVGID_3_" gradientUnits="userSpaceOnUse" x1="263.8515" y1="134.7" x2="355.3478" y2="228.7053">
		<stop  offset="0" style="stop-color:#F9E638"/>
		<stop  offset="0.2036" style="stop-color:#F8E039"/>
		<stop  offset="0.4681" style="stop-color:#F7D03E"/>
		<stop  offset="0.7649" style="stop-color:#F4B544"/>
		<stop  offset="1" style="stop-color:#F29B4B"/>
	</linearGradient>
	<path class="st2" d="M355.66,139.17c0.28,5.82,0.42,13.38,0,22.2c-0.21,4.47-0.53,10.86-1.69,19.03
		c-2.27,15.99-6.15,27.42-6.98,29.82c-3.24,9.4-5.14,14.88-9.94,21.36c-3.36,4.54-8,10.64-16.49,14.38
		c-8.38,3.69-15.92,3.06-19.24,2.75c-1.29-0.12-10.91-1.14-19.88-7.19c-12-8.09-15.9-20.51-21.36-37.85
		c-5.89-18.74-6.47-33.43-7.19-51.6c-0.34-8.54-0.48-12.86,0.63-15.01C263.47,117.87,326.55,131.79,355.66,139.17z"/>
	<linearGradient id="SVGID_4_" gradientUnits="userSpaceOnUse" x1="301.7761" y1="98.0683" x2="309.3539" y2="216.1978">
		<stop  offset="0" style="stop-color:#F9E638"/>
		<stop  offset="0.1164" style="stop-color:#F8E039"/>
		<stop  offset="0.2677" style="stop-color:#F7D03E"/>
		<stop  offset="0.4374" style="stop-color:#F4B544"/>
		<stop  offset="0.5719" style="stop-color:#F29B4B"/>
	</linearGradient>
	<path class="st3" d="M356.83,143.39H251.51c-3.21,0-5.81-2.6-5.81-5.81v-4.45c0-3.21,2.6-5.81,5.81-5.81h105.32
		c3.21,0,5.81,2.6,5.81,5.81v4.45C362.64,140.79,360.04,143.39,356.83,143.39z"/>
	<linearGradient id="SVGID_5_" gradientUnits="userSpaceOnUse" x1="278.2491" y1="248.2863" x2="318.8571" y2="287.1493">
		<stop  offset="1.331947e-07" style="stop-color:#F29B4B"/>
		<stop  offset="0.217" style="stop-color:#F19846"/>
		<stop  offset="0.4578" style="stop-color:#F08E39"/>
		<stop  offset="0.7098" style="stop-color:#EE7E23"/>
		<stop  offset="0.9682" style="stop-color:#EA6704"/>
		<stop  offset="0.9766" style="stop-color:#EA6603"/>
	</linearGradient>
	<path class="st4" d="M273.08,262.13h62.72c4.81,0,8.71,3.9,8.71,8.71v8.73h-80.15v-8.73C264.37,266.03,268.27,262.13,273.08,262.13
		z"/>
</g>
<g id="buku">
	<g>
		<defs>
			<path id="SVGID_6_" d="M110.15,278.57h-9.25c-1.52,0-2.75-1.23-2.75-2.75v-77.76c0-1.52,1.23-2.75,2.75-2.75h9.25
				c1.52,0,2.75,1.23,2.75,2.75v77.76C112.9,277.34,111.67,278.57,110.15,278.57z"/>
		</defs>
		<linearGradient id="SVGID_7_" gradientUnits="userSpaceOnUse" x1="93.9507" y1="235.6554" x2="117.0939" y2="238.2283">
			<stop  offset="0" style="stop-color:#669DB5"/>
			<stop  offset="0.8398" style="stop-color:#3C6373"/>
			<stop  offset="1" style="stop-color:#345866"/>
		</linearGradient>
		<use xlink:href="#SVGID_6_"  style="overflow:visible;fill:url(#SVGID_7_);"/>
		<clipPath id="SVGID_8_">
			<use xlink:href="#SVGID_6_"  style="overflow:visible;"/>
		</clipPath>
		<rect x="95.03" y="208.63" class="st5" width="20.83" height="8.04"/>
	</g>
	<g>
		<defs>
			<path id="SVGID_9_" d="M94.71,278.57H84.19c-1.9,0-3.44-1.54-3.44-3.44v-87.91c0-1.9,1.54-3.44,3.44-3.44h10.51
				c1.9,0,3.44,1.54,3.44,3.44v87.91C98.15,277.03,96.61,278.57,94.71,278.57z"/>
		</defs>
		<linearGradient id="SVGID_10_" gradientUnits="userSpaceOnUse" x1="72.3794" y1="228.7654" x2="100.5974" y2="232.7556">
			<stop  offset="0" style="stop-color:#DAC2E2"/>
			<stop  offset="0.2401" style="stop-color:#D6BFDE"/>
			<stop  offset="0.4847" style="stop-color:#CBB4D2"/>
			<stop  offset="0.7312" style="stop-color:#B7A3BD"/>
			<stop  offset="0.9778" style="stop-color:#9D8BA1"/>
			<stop  offset="1" style="stop-color:#9A889E"/>
		</linearGradient>
		<use xlink:href="#SVGID_9_"  style="overflow:visible;fill:url(#SVGID_10_);"/>
		<clipPath id="SVGID_11_">
			<use xlink:href="#SVGID_9_"  style="overflow:visible;"/>
		</clipPath>
		<rect x="77.27" y="191.87" class="st6" width="23.31" height="3.33"/>
	</g>
	<linearGradient id="SVGID_12_" gradientUnits="userSpaceOnUse" x1="67.6941" y1="241.2645" x2="81.7424" y2="242.8263">
		<stop  offset="0" style="stop-color:#A5F5C4"/>
		<stop  offset="0.1741" style="stop-color:#9EF4C0"/>
		<stop  offset="0.4236" style="stop-color:#8BF1B3"/>
		<stop  offset="0.7169" style="stop-color:#6DEDA0"/>
		<stop  offset="1" style="stop-color:#48E888"/>
	</linearGradient>
	<path class="st7" d="M78.98,279.21h-9.03c-0.98,0-1.78-0.8-1.78-1.78V206.6c0-0.98,0.8-1.78,1.78-1.78h9.03
		c0.98,0,1.78,0.8,1.78,1.78v70.83C80.75,278.41,79.96,279.21,78.98,279.21z"/>
	<g>
		<defs>
			<path id="SVGID_13_" d="M50.94,281.88l-7.3-1.39c-1.55-0.3-2.58-1.8-2.28-3.35l15.8-82.86c0.3-1.55,1.8-2.58,3.35-2.28l7.3,1.39
				c1.55,0.3,2.58,1.8,2.28,3.35l-15.8,82.86C53.99,281.16,52.49,282.18,50.94,281.88z"/>
		</defs>
		<linearGradient id="SVGID_14_" gradientUnits="userSpaceOnUse" x1="41.8896" y1="234.1443" x2="69.8324" y2="239.7956">
			<stop  offset="0" style="stop-color:#FEA9A7"/>
			<stop  offset="0.2107" style="stop-color:#FEA5A3"/>
			<stop  offset="0.4253" style="stop-color:#FE9997"/>
			<stop  offset="0.6417" style="stop-color:#FE8484"/>
			<stop  offset="0.8579" style="stop-color:#FF6868"/>
			<stop  offset="1" style="stop-color:#FF5152"/>
		</linearGradient>
		<use xlink:href="#SVGID_13_"  style="overflow:visible;fill:url(#SVGID_14_);"/>
		<clipPath id="SVGID_15_">
			<use xlink:href="#SVGID_13_"  style="overflow:visible;"/>
		</clipPath>
		
			<rect x="53.44" y="200.73" transform="matrix(0.9884 0.1521 -0.1521 0.9884 31.4426 -7.093)" class="st8" width="17.29" height="2.46"/>
		
			<rect x="41.65" y="264.18" transform="matrix(0.9884 0.1521 -0.1521 0.9884 40.9573 -4.5618)" class="st8" width="17.29" height="2.46"/>
	</g>
	<rect x="73.09" y="215.82" class="st9" width="2.06" height="56.67"/>
</g>
<g id="laptop">
	<linearGradient id="SVGID_16_" gradientUnits="userSpaceOnUse" x1="196.6466" y1="153.7747" x2="196.6466" y2="262.3097">
		<stop  offset="0" style="stop-color:#8D8D8D"/>
		<stop  offset="0.2684" style="stop-color:#898989"/>
		<stop  offset="0.5396" style="stop-color:#7D7D7D"/>
		<stop  offset="0.8112" style="stop-color:#696969"/>
		<stop  offset="1" style="stop-color:#565656"/>
	</linearGradient>
	<path class="st10" d="M125.91,157.99h141.47c7.59,0,13.75,6.15,13.75,13.75v94.79l-168.96-0.79v-94
		C112.17,164.14,118.32,157.99,125.91,157.99z"/>
	<g id="Layer_7">
	</g>
	<g>
		<defs>
			<path id="SVGID_17_" d="M127.39,170.46h137.22c3.33,0,6.04,2.7,6.04,6.04v78.64c0,3.33-2.7,6.04-6.04,6.04H127.39
				c-3.33,0-6.04-2.7-6.04-6.04V176.5C121.36,173.17,124.06,170.46,127.39,170.46z"/>
		</defs>
		<use xlink:href="#SVGID_17_"  style="overflow:visible;fill:#84DDFF;"/>
		<clipPath id="SVGID_18_">
			<use xlink:href="#SVGID_17_"  style="overflow:visible;"/>
		</clipPath>
		<path class="st11" d="M119.24,208.31c9.89-13.32,19.77-26.64,29.66-39.97c3.81,0,7.61,0,11.42,0
			c-13.8,19.98-27.6,39.97-41.39,59.95C119.03,221.64,119.14,214.98,119.24,208.31z"/>
		<path class="st11" d="M120.19,242.41c18.93-26.22,37.85-52.44,56.78-78.67c6.34,2.85,12.69,5.71,19.03,8.56
			c-20.2,29.87-40.39,59.74-60.59,89.61c-5.76,0.26-11.52,0.53-17.29,0.79C118.82,255.95,119.51,249.18,120.19,242.41z"/>
		<path class="st11" d="M218,260.55c17.55-23.33,35.1-46.66,52.66-70c4.02,0.28,8.04,0.56,12.05,0.85
			c-18.4,24.46-36.8,48.92-55.19,73.38C224.34,263.37,221.17,261.96,218,260.55z"/>
	</g>
	<g>
		<defs>
			<path id="SVGID_19_" d="M287.4,279.58H105.66c-4.18,0-7.57-3.39-7.57-7.57v-6.6h196.87v6.6
				C294.97,276.19,291.58,279.58,287.4,279.58z"/>
		</defs>
		<linearGradient id="SVGID_20_" gradientUnits="userSpaceOnUse" x1="98.0946" y1="272.4946" x2="294.9695" y2="272.4946">
			<stop  offset="0" style="stop-color:#8D8D8D"/>
			<stop  offset="0.1743" style="stop-color:#858585"/>
			<stop  offset="0.4389" style="stop-color:#707070"/>
			<stop  offset="0.759" style="stop-color:#4E4E4E"/>
			<stop  offset="1" style="stop-color:#303030"/>
		</linearGradient>
		<use xlink:href="#SVGID_19_"  style="overflow:visible;fill:url(#SVGID_20_);"/>
		<clipPath id="SVGID_21_">
			<use xlink:href="#SVGID_19_"  style="overflow:visible;"/>
		</clipPath>
		<path class="st12" d="M218.31,270.81h-44.78c-1.69,0-3.07-1.37-3.07-3.07v-5.95h50.91v5.95
			C221.38,269.44,220.01,270.81,218.31,270.81z"/>
	</g>
</g>
<g id="medal">
	<g class="st13">
		<g>
			<defs>
				<path id="SVGID_22_" d="M216.69,195.2h-35.28c-7.31,0-13.23-5.92-13.23-13.23v-17.69c0-2.83,2.3-5.13,5.13-5.13h51.49
					c2.83,0,5.13,2.3,5.13,5.13v17.69C229.92,189.28,224,195.2,216.69,195.2z"/>
			</defs>
			<clipPath id="SVGID_23_">
				<use xlink:href="#SVGID_22_"  style="overflow:visible;"/>
			</clipPath>
		</g>
		<g>
			<defs>
				<circle id="SVGID_24_" cx="199.15" cy="205.56" r="20.84"/>
			</defs>
			<clipPath id="SVGID_25_">
				<use xlink:href="#SVGID_24_"  style="overflow:visible;"/>
			</clipPath>
		</g>
		<path d="M230.02,166.66h-61.95c-3.04,0-5.5-2.46-5.5-5.5v-4.22c0-3.04,2.46-5.5,5.5-5.5h61.95c3.04,0,5.5,2.46,5.5,5.5v4.22
			C235.53,164.19,233.06,166.66,230.02,166.66z"/>
		<g>
			<defs>
				<path id="SVGID_26_" d="M216.69,195.2h-35.28c-7.31,0-13.23-5.92-13.23-13.23v-17.69c0-2.83,2.3-5.13,5.13-5.13h51.49
					c2.83,0,5.13,2.3,5.13,5.13v17.69C229.92,189.28,224,195.2,216.69,195.2z"/>
			</defs>
			<use xlink:href="#SVGID_26_"  style="overflow:visible;"/>
			<clipPath id="SVGID_27_">
				<use xlink:href="#SVGID_26_"  style="overflow:visible;"/>
			</clipPath>
			<rect x="182.77" y="157.46" class="st14" width="10.47" height="37.75"/>
			<rect x="202.26" y="156.51" class="st14" width="11.31" height="38.7"/>
		</g>
		<circle cx="199.05" cy="206.62" r="28.02"/>
		<g>
			<defs>
				<circle id="SVGID_28_" cx="199.15" cy="205.56" r="20.84"/>
			</defs>
			<use xlink:href="#SVGID_28_"  style="overflow:visible;"/>
			<clipPath id="SVGID_29_">
				<use xlink:href="#SVGID_28_"  style="overflow:visible;"/>
			</clipPath>
			<path class="st15" d="M177.48,213.18c8.42-10.15,16.85-20.3,25.27-30.45c3.21,1.8,6.41,3.59,9.62,5.39
				c-9.87,10.5-19.74,21.01-29.61,31.51C181,217.48,179.24,215.33,177.48,213.18z"/>
			<path class="st15" d="M193.66,226.29c0.04-0.05,0.09-0.11,0.13-0.16l0,0c8.13-9.99,16.27-19.98,24.4-29.97
				c1.2,1.69,2.4,3.38,3.59,5.08c-7.15,8.63-14.31,17.27-21.46,25.9C198.1,226.85,195.88,226.57,193.66,226.29z"/>
		</g>
		<path d="M200.88,192.41l2.9,5.89c0.3,0.61,0.88,1.03,1.56,1.13l6.5,0.94c1.7,0.25,2.38,2.33,1.15,3.53l-4.7,4.58
			c-0.49,0.48-0.71,1.16-0.6,1.83l1.11,6.47c0.29,1.69-1.49,2.98-3,2.18l-5.81-3.05c-0.6-0.32-1.32-0.32-1.93,0l-5.81,3.05
			c-1.52,0.8-3.29-0.49-3-2.18l1.11-6.47c0.12-0.67-0.11-1.36-0.6-1.83l-4.7-4.58c-1.23-1.2-0.55-3.29,1.15-3.53l6.5-0.94
			c0.67-0.1,1.26-0.52,1.56-1.13l2.9-5.89C197.92,190.87,200.12,190.87,200.88,192.41z"/>
		<g>
			<defs>
				<path id="SVGID_30_" d="M216.69,195.2h-35.28c-7.31,0-13.23-5.92-13.23-13.23v-17.69c0-2.83,2.3-5.13,5.13-5.13h51.49
					c2.83,0,5.13,2.3,5.13,5.13v17.69C229.92,189.28,224,195.2,216.69,195.2z"/>
			</defs>
			<clipPath id="SVGID_31_">
				<use xlink:href="#SVGID_30_"  style="overflow:visible;"/>
			</clipPath>
		</g>
		<g>
			<defs>
				<circle id="SVGID_32_" cx="199.15" cy="205.56" r="20.84"/>
			</defs>
			<clipPath id="SVGID_33_">
				<use xlink:href="#SVGID_32_"  style="overflow:visible;"/>
			</clipPath>
		</g>
	</g>
	<g>
		<g>
			<g>
				<defs>
					<path id="SVGID_34_" d="M213.86,195.2h-35.28c-7.31,0-13.23-5.92-13.23-13.23v-17.69c0-2.83,2.3-5.13,5.13-5.13h51.49
						c2.83,0,5.13,2.3,5.13,5.13v17.69C227.09,189.28,221.16,195.2,213.86,195.2z"/>
				</defs>
				<clipPath id="SVGID_35_">
					<use xlink:href="#SVGID_34_"  style="overflow:visible;"/>
				</clipPath>
			</g>
			<g>
				<defs>
					<circle id="SVGID_36_" cx="196.31" cy="205.56" r="20.84"/>
				</defs>
				<clipPath id="SVGID_37_">
					<use xlink:href="#SVGID_36_"  style="overflow:visible;"/>
				</clipPath>
			</g>
		</g>
		<g>
			<linearGradient id="SVGID_38_" gradientUnits="userSpaceOnUse" x1="194.2157" y1="135.5241" x2="197.9621" y2="179.5992">
				<stop  offset="0" style="stop-color:#F9E638"/>
				<stop  offset="0.1307" style="stop-color:#F8E039"/>
				<stop  offset="0.3006" style="stop-color:#F7D03E"/>
				<stop  offset="0.4913" style="stop-color:#F4B544"/>
				<stop  offset="0.6422" style="stop-color:#F29B4B"/>
			</linearGradient>
			<path class="st16" d="M227.19,166.66h-61.95c-3.04,0-5.5-2.46-5.5-5.5v-4.22c0-3.04,2.46-5.5,5.5-5.5h61.95
				c3.04,0,5.5,2.46,5.5,5.5v4.22C232.69,164.19,230.23,166.66,227.19,166.66z"/>
			<g>
				<defs>
					<path id="SVGID_39_" d="M213.86,195.2h-35.28c-7.31,0-13.23-5.92-13.23-13.23v-17.69c0-2.83,2.3-5.13,5.13-5.13h51.49
						c2.83,0,5.13,2.3,5.13,5.13v17.69C227.09,189.28,221.16,195.2,213.86,195.2z"/>
				</defs>
				<use xlink:href="#SVGID_39_"  style="overflow:visible;fill:#FFFFFF;"/>
				<clipPath id="SVGID_40_">
					<use xlink:href="#SVGID_39_"  style="overflow:visible;"/>
				</clipPath>
				<linearGradient id="SVGID_41_" gradientUnits="userSpaceOnUse" x1="179.9319" y1="176.3304" x2="190.3995" y2="176.3304">
					<stop  offset="0" style="stop-color:#B33938"/>
					<stop  offset="0.2553" style="stop-color:#AD3736"/>
					<stop  offset="0.587" style="stop-color:#9D3331"/>
					<stop  offset="0.9594" style="stop-color:#822B29"/>
					<stop  offset="1" style="stop-color:#7F2A28"/>
				</linearGradient>
				<rect x="179.93" y="157.46" class="st17" width="10.47" height="37.75"/>
				<linearGradient id="SVGID_42_" gradientUnits="userSpaceOnUse" x1="199.4206" y1="175.8546" x2="210.734" y2="175.8546">
					<stop  offset="0" style="stop-color:#B33938"/>
					<stop  offset="0.2553" style="stop-color:#AD3736"/>
					<stop  offset="0.587" style="stop-color:#9D3331"/>
					<stop  offset="0.9594" style="stop-color:#822B29"/>
					<stop  offset="1" style="stop-color:#7F2A28"/>
				</linearGradient>
				<rect x="199.42" y="156.51" class="st18" width="11.31" height="38.7"/>
			</g>
			<radialGradient id="SVGID_43_" cx="196.2148" cy="206.6229" r="30.0152" gradientUnits="userSpaceOnUse">
				<stop  offset="0" style="stop-color:#F9E638"/>
				<stop  offset="0.2036" style="stop-color:#F8E039"/>
				<stop  offset="0.4681" style="stop-color:#F7D03E"/>
				<stop  offset="0.7649" style="stop-color:#F4B544"/>
				<stop  offset="1" style="stop-color:#F29B4B"/>
			</radialGradient>
			<circle class="st19" cx="196.21" cy="206.62" r="28.02"/>
			<g>
				<defs>
					<circle id="SVGID_44_" cx="196.31" cy="205.56" r="20.84"/>
				</defs>
				<use xlink:href="#SVGID_44_"  style="overflow:visible;fill:#FCE97A;"/>
				<clipPath id="SVGID_45_">
					<use xlink:href="#SVGID_44_"  style="overflow:visible;"/>
				</clipPath>
				<path class="st20" d="M174.65,213.18c8.42-10.15,16.85-20.3,25.27-30.45c3.21,1.8,6.41,3.59,9.62,5.39
					c-9.87,10.5-19.74,21.01-29.61,31.51C178.17,217.48,176.41,215.33,174.65,213.18z"/>
				<path class="st20" d="M190.82,226.29c0.04-0.05,0.09-0.11,0.13-0.16l0,0c8.13-9.99,16.27-19.98,24.4-29.97
					c1.2,1.69,2.4,3.38,3.59,5.08c-7.15,8.63-14.31,17.27-21.46,25.9C195.26,226.85,193.04,226.57,190.82,226.29z"/>
			</g>
			<path class="st21" d="M198.04,192.41l2.9,5.89c0.3,0.61,0.88,1.03,1.56,1.13l6.5,0.94c1.7,0.25,2.38,2.33,1.15,3.53l-4.7,4.58
				c-0.49,0.48-0.71,1.16-0.6,1.83l1.11,6.47c0.29,1.69-1.49,2.98-3,2.18l-5.81-3.05c-0.6-0.32-1.32-0.32-1.93,0l-5.81,3.05
				c-1.52,0.8-3.29-0.49-3-2.18l1.11-6.47c0.12-0.67-0.11-1.36-0.6-1.83l-4.7-4.58c-1.23-1.2-0.55-3.29,1.15-3.53l6.5-0.94
				c0.67-0.1,1.26-0.52,1.56-1.13l2.9-5.89C195.09,190.87,197.28,190.87,198.04,192.41z"/>
		</g>
		<g>
			<g>
				<defs>
					<path id="SVGID_46_" d="M213.86,195.2h-35.28c-7.31,0-13.23-5.92-13.23-13.23v-17.69c0-2.83,2.3-5.13,5.13-5.13h51.49
						c2.83,0,5.13,2.3,5.13,5.13v17.69C227.09,189.28,221.16,195.2,213.86,195.2z"/>
				</defs>
				<clipPath id="SVGID_47_">
					<use xlink:href="#SVGID_46_"  style="overflow:visible;"/>
				</clipPath>
			</g>
			<g>
				<defs>
					<circle id="SVGID_48_" cx="196.31" cy="205.56" r="20.84"/>
				</defs>
				<clipPath id="SVGID_49_">
					<use xlink:href="#SVGID_48_"  style="overflow:visible;"/>
				</clipPath>
			</g>
		</g>
	</g>
</g>
</svg>
