<svg width="72" height="73" viewBox="0 0 72 73" fill="none" xmlns="http://www.w3.org/2000/svg">
<rect y="0.357422" width="72" height="72" rx="36" fill="#F2994A" fill-opacity="0.2"/>
<path d="M36 25.3574C37.3924 25.3574 38.7277 25.9169 39.7123 26.9128C40.6969 27.9087 41.25 29.2594 41.25 30.6678C41.25 32.0762 40.6969 33.4269 39.7123 34.4227C38.7277 35.4186 37.3924 35.9781 36 35.9781C34.6076 35.9781 33.2723 35.4186 32.2877 34.4227C31.3031 33.4269 30.75 32.0762 30.75 30.6678C30.75 29.2594 31.3031 27.9087 32.2877 26.9128C33.2723 25.9169 34.6076 25.3574 36 25.3574ZM25.5 29.1505C26.34 29.1505 27.12 29.3781 27.795 29.7878C27.57 31.9574 28.2 34.1119 29.49 35.796C28.74 37.2526 27.24 38.254 25.5 38.254C24.3065 38.254 23.1619 37.7744 22.318 36.9208C21.4741 36.0672 21 34.9094 21 33.7022C21 32.4951 21.4741 31.3373 22.318 30.4837C23.1619 29.6301 24.3065 29.1505 25.5 29.1505ZM46.5 29.1505C47.6935 29.1505 48.8381 29.6301 49.682 30.4837C50.5259 31.3373 51 32.4951 51 33.7022C51 34.9094 50.5259 36.0672 49.682 36.9208C48.8381 37.7744 47.6935 38.254 46.5 38.254C44.76 38.254 43.26 37.2526 42.51 35.796C43.8 34.1119 44.43 31.9574 44.205 29.7878C44.88 29.3781 45.66 29.1505 46.5 29.1505ZM26.25 44.7022C26.25 41.5616 30.615 39.0126 36 39.0126C41.385 39.0126 45.75 41.5616 45.75 44.7022V47.3574H26.25V44.7022ZM18 47.3574V45.0816C18 42.9726 20.835 41.1974 24.675 40.6816C23.79 41.7133 23.25 43.1395 23.25 44.7022V47.3574H18ZM54 47.3574H48.75V44.7022C48.75 43.1395 48.21 41.7133 47.325 40.6816C51.165 41.1974 54 42.9726 54 45.0816V47.3574Z" fill="#F39C12"/>
</svg>
