<svg width="21" height="19" viewBox="0 0 21 19" fill="none" xmlns="http://www.w3.org/2000/svg">
<path d="M10.5 8C9.4 8 8.5 8.9 8.5 10C8.5 11.1 9.4 12 10.5 12C11.6 12 12.5 11.1 12.5 10C12.5 8.9 11.6 8 10.5 8ZM16.5 10C16.5 6.69 13.81 4 10.5 4C7.19 4 4.5 6.69 4.5 10C4.5 12.22 5.71 14.15 7.5 15.19L8.5 13.45C7.31 12.75 6.5 11.48 6.5 10C6.5 7.79 8.29 6 10.5 6C12.71 6 14.5 7.79 14.5 10C14.5 11.48 13.69 12.75 12.5 13.45L13.5 15.19C15.29 14.15 16.5 12.22 16.5 10ZM10.5 0C4.98 0 0.5 4.48 0.5 10C0.5 13.7 2.51 16.92 5.49 18.65L6.49 16.92C4.11 15.53 2.5 12.96 2.5 10C2.5 5.58 6.08 2 10.5 2C14.92 2 18.5 5.58 18.5 10C18.5 12.96 16.89 15.53 14.5 16.92L15.5 18.65C18.49 16.92 20.5 13.7 20.5 10C20.5 4.48 16.02 0 10.5 0Z" fill="white"/>
</svg>
