<svg width="26" height="24" viewBox="0 0 26 24" fill="none" xmlns="http://www.w3.org/2000/svg">
<path d="M11.1109 1.43477C11.7335 -0.356349 14.2665 -0.356348 14.8891 1.43477L16.54 6.18411C16.8146 6.97426 17.552 7.51 18.3884 7.52704L23.4154 7.62948C25.3113 7.66812 26.094 10.0772 24.583 11.2228L20.5762 14.2605C19.9096 14.7659 19.628 15.6327 19.8702 16.4334L21.3262 21.2461C21.8753 23.0611 19.826 24.55 18.2695 23.4669L14.1424 20.5949C13.4557 20.1171 12.5443 20.1171 11.8576 20.5949L7.73046 23.4669C6.17398 24.55 4.12469 23.0611 4.6738 21.2461L6.12981 16.4334C6.37204 15.6327 6.09039 14.7659 5.42379 14.2605L1.41704 11.2228C-0.0940216 10.0772 0.68874 7.66812 2.58459 7.62948L7.61163 7.52704C8.44797 7.51 9.18535 6.97426 9.46 6.18411L11.1109 1.43477Z" fill="#634C2A"/>
</svg>
