<svg width="20" height="21" viewBox="0 0 20 21" fill="none" xmlns="http://www.w3.org/2000/svg">
<path fill-rule="evenodd" clip-rule="evenodd" d="M5.95 2.5C5.61848 2.5 5.30054 2.6317 5.06612 2.86612C4.8317 3.10054 4.7 3.41848 4.7 3.75C4.7 4.08152 4.8317 4.39946 5.06612 4.63388C5.30054 4.8683 5.61848 5 5.95 5H8.64195C8.5428 4.75396 8.42287 4.49162 8.28003 4.23192C7.71982 3.21334 6.9689 2.5 5.95 2.5ZM9 7V9.5H2V7H9ZM2.95 5C2.78652 4.60765 2.7 4.18329 2.7 3.75C2.7 2.88805 3.04241 2.0614 3.6519 1.4519C4.2614 0.84241 5.08805 0.5 5.95 0.5C8.04751 0.5 9.31481 1.98861 10 3.20964C10.6852 1.98861 11.9525 0.5 14.05 0.5C14.912 0.5 15.7386 0.84241 16.3481 1.4519C16.9576 2.0614 17.3 2.88805 17.3 3.75C17.3 4.18329 17.2135 4.60765 17.05 5H19C19.5523 5 20 5.44772 20 6V10.5C20 11.0523 19.5523 11.5 19 11.5H18.2V19.5C18.2 20.0523 17.7523 20.5 17.2 20.5H2.8C2.24772 20.5 1.8 20.0523 1.8 19.5V11.5H1C0.447715 11.5 0 11.0523 0 10.5V6C0 5.44772 0.447715 5 1 5H2.95ZM3.8 11.5V18.5H9V11.5H3.8ZM11 11.5V18.5H16.2V11.5H11ZM18 9.5H11V7H18V9.5ZM14.05 5C14.3815 5 14.6995 4.8683 14.9339 4.63388C15.1683 4.39946 15.3 4.08152 15.3 3.75C15.3 3.41848 15.1683 3.10054 14.9339 2.86612C14.6995 2.6317 14.3815 2.5 14.05 2.5C13.0311 2.5 12.2802 3.21334 11.72 4.23192C11.5771 4.49162 11.4572 4.75396 11.3581 5H14.05Z" fill="#54C280"/>
</svg>
