<svg xmlns="http://www.w3.org/2000/svg" xmlns:xlink="http://www.w3.org/1999/xlink" viewBox="0 0 512.4 659.63"><defs><style>.cls-1{fill:none;}.cls-2{fill:url(#linear-gradient);}.cls-3{fill:url(#linear-gradient-2);}.cls-4{fill:url(#linear-gradient-3);}.cls-5{fill:#84ddff;}.cls-6{fill:url(#linear-gradient-4);}.cls-7{fill:#d39659;}.cls-8{fill:url(#linear-gradient-5);}.cls-9{fill:#c6884f;}.cls-10{fill:#e9af6d;}.cls-11{fill:url(#linear-gradient-6);}.cls-12{fill:#5e5555;}.cls-13{fill:url(#linear-gradient-7);}.cls-14{fill:#281c12;}.cls-15{fill:#e4e4ea;opacity:0.4;}.cls-16{fill:#1c1b19;}.cls-17{fill:#ec8066;}.cls-18,.cls-19{fill:#e8e3e3;}.cls-18{opacity:0.31;}.cls-19{opacity:0.3;}.cls-20{fill:url(#linear-gradient-8);}.cls-21{fill:url(#linear-gradient-9);}.cls-22{fill:url(#linear-gradient-10);}.cls-23{fill:#af3e35;}.cls-24{clip-path:url(#clip-path);}.cls-25{fill:#cc4e48;}.cls-26{fill:#f9f4f4;}.cls-27{clip-path:url(#clip-path-3);}.cls-28{fill:#345866;}.cls-29{clip-path:url(#clip-path-4);}.cls-30{fill:#a292a6;}.cls-31{fill:url(#linear-gradient-13);}.cls-32{clip-path:url(#clip-path-5);}.cls-33{fill:#fc6a6a;}.cls-34{fill:#48e888;}.cls-35{fill:url(#linear-gradient-15);}.cls-36{clip-path:url(#clip-path-6);}.cls-37{fill:#aae6f9;}.cls-38{clip-path:url(#clip-path-7);}.cls-39{fill:#595959;}.cls-40{fill:#b74646;stroke:#f2ebeb;stroke-miterlimit:10;stroke-width:7px;}.cls-41{fill:#f2ebeb;}</style><linearGradient id="linear-gradient" x1="280.22" y1="729.71" x2="327.5" y2="734.97" gradientUnits="userSpaceOnUse"><stop offset="0" stop-color="#669db5"/><stop offset="0.84" stop-color="#3c6373"/><stop offset="1" stop-color="#345866"/></linearGradient><linearGradient id="linear-gradient-2" x1="236.45" y1="715.76" x2="294.26" y2="723.94" gradientUnits="userSpaceOnUse"><stop offset="0" stop-color="#dac2e2"/><stop offset="0.24" stop-color="#d6bfde"/><stop offset="0.48" stop-color="#cbb4d2"/><stop offset="0.73" stop-color="#b7a3bd"/><stop offset="0.98" stop-color="#9d8ba1"/><stop offset="1" stop-color="#9a889e"/></linearGradient><linearGradient id="linear-gradient-3" x1="175.38" y1="726.68" x2="231.9" y2="738.11" gradientTransform="translate(-133.56 51.05) rotate(-10.79)" gradientUnits="userSpaceOnUse"><stop offset="0" stop-color="#fea9a7"/><stop offset="0.21" stop-color="#fea5a3"/><stop offset="0.43" stop-color="#fe9997"/><stop offset="0.64" stop-color="#fe8484"/><stop offset="0.86" stop-color="#ff6868"/><stop offset="1" stop-color="#ff5152"/></linearGradient><linearGradient id="linear-gradient-4" x1="288.87" y1="804.08" x2="686.17" y2="804.08" gradientUnits="userSpaceOnUse"><stop offset="0" stop-color="#8d8d8d"/><stop offset="0.17" stop-color="#858585"/><stop offset="0.44" stop-color="#707070"/><stop offset="0.76" stop-color="#4e4e4e"/><stop offset="1" stop-color="#303030"/></linearGradient><linearGradient id="linear-gradient-5" x1="317.75" y1="363.02" x2="384.61" y2="401.62" gradientUnits="userSpaceOnUse"><stop offset="0.02" stop-color="#f4c99f"/><stop offset="0.37" stop-color="#e9af6d"/><stop offset="0.72" stop-color="#d39659"/></linearGradient><linearGradient id="linear-gradient-6" x1="402.69" y1="581.59" x2="546.46" y2="581.59" gradientUnits="userSpaceOnUse"><stop offset="0.31" stop-color="#847a7a"/><stop offset="0.52" stop-color="#605454"/><stop offset="0.87" stop-color="#423737"/></linearGradient><linearGradient id="linear-gradient-7" x1="347.01" y1="584.11" x2="629.29" y2="747.09" gradientUnits="userSpaceOnUse"><stop offset="0.03" stop-color="#c14444"/><stop offset="0.42" stop-color="#a03535"/><stop offset="0.72" stop-color="#7a221e"/></linearGradient><linearGradient id="linear-gradient-8" x1="336.34" y1="367.13" x2="455" y2="435.64" gradientUnits="userSpaceOnUse"><stop offset="0" stop-color="#aaaaaf"/><stop offset="0.24" stop-color="#525259"/><stop offset="0.59" stop-color="#232326"/></linearGradient><linearGradient id="linear-gradient-9" x1="295.98" y1="451.54" x2="342.81" y2="478.57" gradientUnits="userSpaceOnUse"><stop offset="0.02" stop-color="#f4c99f"/><stop offset="0.42" stop-color="#e9af6d"/><stop offset="0.72" stop-color="#d39659"/></linearGradient><linearGradient id="linear-gradient-10" x1="242" y1="599.72" x2="366" y2="599.72" xlink:href="#linear-gradient-7"/><clipPath id="clip-path" transform="translate(-173.77 -164)"><ellipse class="cls-1" cx="476" cy="464" rx="19" ry="10"/></clipPath><clipPath id="clip-path-3" transform="translate(-173.77 -164)"><rect class="cls-2" x="288.98" y="648.32" width="29.77" height="168.03" rx="2.75"/></clipPath><clipPath id="clip-path-4" transform="translate(-173.77 -164)"><rect class="cls-3" x="253.88" y="625.06" width="35.1" height="191.29" rx="3.44"/></clipPath><linearGradient id="linear-gradient-13" x1="53.62" y1="577.05" x2="82.23" y2="580.23" gradientUnits="userSpaceOnUse"><stop offset="0" stop-color="#a5f5c4"/><stop offset="0.17" stop-color="#9ef4c0"/><stop offset="0.42" stop-color="#8bf1b3"/><stop offset="0.72" stop-color="#6deda0"/><stop offset="1" stop-color="#48e888"/></linearGradient><clipPath id="clip-path-5" transform="translate(-173.77 -164)"><rect class="cls-4" x="190.08" y="641.44" width="26.57" height="181.79" rx="2.87" transform="translate(140.76 -25.13) rotate(10.79)"/></clipPath><linearGradient id="linear-gradient-15" x1="487.75" y1="564.5" x2="487.75" y2="783.53" gradientUnits="userSpaceOnUse"><stop offset="0" stop-color="#8d8d8d"/><stop offset="0.27" stop-color="#898989"/><stop offset="0.54" stop-color="#7d7d7d"/><stop offset="0.81" stop-color="#696969"/><stop offset="1" stop-color="#565656"/></linearGradient><clipPath id="clip-path-6" transform="translate(-173.77 -164)"><rect class="cls-5" x="335.81" y="598.18" width="301.28" height="183.08" rx="6.04"/></clipPath><clipPath id="clip-path-7" transform="translate(-173.77 -164)"><path class="cls-6" d="M288.87,789.79h397.3a0,0,0,0,1,0,0v21a7.57,7.57,0,0,1-7.57,7.57H296.44a7.57,7.57,0,0,1-7.57-7.57v-21A0,0,0,0,1,288.87,789.79Z"/></clipPath></defs><title>gaada kelas</title><g id="Layer_2" data-name="Layer 2"><path class="cls-7" d="M587.54,354.81s18.83-17.12,27.38,0c0,0,22.25,22.25-5.13,66.75,0,0-13.69,17.11-35.94,15.4l-8.56-41.08Z" transform="translate(-173.77 -164)"/><path class="cls-8" d="M356.45,344.54s-18.83-17.12-27.39,0c0,0-22.25,22.25,5.14,66.75,0,0,13.69,17.11,35.94,15.4l8.56-41.08Z" transform="translate(-173.77 -164)"/><path class="cls-7" d="M438.63,490s8.56,37.65-8.55,53.06l34.23,44.5,58.19-5.14v-44.5s-15.4,0-12-42.79Z" transform="translate(-173.77 -164)"/><path class="cls-9" d="M593.63,376.73s23.33,19.38-6.79,33l-11.28-3.54,6.84-29.09Z" transform="translate(-173.77 -164)"/><path class="cls-9" d="M353.11,366.46s-23.32,19.38,6.79,33l11.29-3.54-6.85-29.09Z" transform="translate(-173.77 -164)"/><path class="cls-9" d="M440.57,504.53S475.3,533.6,510,506.67l.5-16.65-63.33-5.14-6.62,16.62Z" transform="translate(-173.77 -164)"/><path class="cls-10" d="M394.13,270.94l-37.65,13.69-6.85,42.79,5.14,15.41s-3.43,114.67,35.94,133.5c0,0,46.21,34.23,80.44,35.94,0,0,41.08,6.84,87.29-35.94,0,0,30.81-35.95,39.37-133.5l15.4-32.52L592.67,259l-82.15-37.65Z" transform="translate(-173.77 -164)"/><path class="cls-11" d="M431.79,529.38s39.36,66.75,87.29,0c0,0,25.67,13.7,27.38,18.83L510.52,620.1,466,633.79l-63.33-85.58A96.43,96.43,0,0,1,431.79,529.38Z" transform="translate(-173.77 -164)"/><path class="cls-12" d="M415.76,538.46s56.23,69.95,66.06,83.8c0,0-12.47,13.55-14.31,13.37s-64-90.09-64-90.09S414,540.14,415.76,538.46Z" transform="translate(-173.77 -164)"/><path class="cls-13" d="M417.1,543.92l48,67.78a12.56,12.56,0,0,0,19.94.72l52.78-64.17a12.51,12.51,0,0,1,16.86-2.33c20.29,14.27,67.12,56.31,96.78,154.93a12.55,12.55,0,0,1-12,16.15H306.66a12.53,12.53,0,0,1-12.44-14.23c3.93-28.45,22.07-95.3,104.79-161.4A12.55,12.55,0,0,1,417.1,543.92Z" transform="translate(-173.77 -164)"/><path class="cls-14" d="M625.19,274.36C610.4,238.7,596.5,222.05,586.4,214.3a31,31,0,0,0,9.7-8.4s-10.27,1.71-24-3.42c0,0-13.69-5.14-15.4-24,0,0-5,2.53-6.28,13.43-29.31-17.8-67.32-25.41-67.32-25.41-32.52-13.7-107.82,32.52-107.82,32.52-10.27,0-12-17.12-12-17.12-18.83,5.13-17.12,32.52-17.12,32.52-12,5.13-24-3.42-24-3.42-5.14,10.27,12,22.25,12,22.25-10.27,1.71-17.12-8.56-17.12-8.56-10.27,25.67,10.27,35.94,10.27,35.94A46.84,46.84,0,0,1,288,281.21c12,18.83,42.79,15.4,42.79,15.4-3.43,25.68,8.14,42,8.14,42,4.73-4.18,17.53,7.61,17.53,7.61-5.14-15.41,0-34.23,0-34.23,5.13-10.27,37.65-37.66,37.65-37.66,87.29,37.66,147.2-10.27,147.2-10.27-1.72,22.25,20.53,32.52,20.53,32.52C584.12,301.75,591,312,591,312c10.27,12,5.14,37.65,5.14,37.65a64.86,64.86,0,0,1,13.69,1.71c5.13,1.71,10.46,10.3,10.46,10.3,5.32-10.25,10.08-30.84,10.08-30.84C640.6,300,625.19,274.36,625.19,274.36Z" transform="translate(-173.77 -164)"/><path class="cls-15" d="M444.87,167.7s26.28,46.76,94.74,46.76c0,0-87.61,22.74-125.1-35.7C414.51,178.76,435.7,168.87,444.87,167.7Z" transform="translate(-173.77 -164)"/><ellipse class="cls-16" cx="340.17" cy="196.8" rx="6.85" ry="9.41"/><ellipse class="cls-16" cx="251.17" cy="196.8" rx="6.85" ry="9.41"/><path class="cls-9" d="M465.12,401s-3.37,20.46,23.15,15.2C488.27,416.22,452.71,430.82,465.12,401Z" transform="translate(-173.77 -164)"/><ellipse class="cls-17" cx="361.56" cy="234.45" rx="14.55" ry="7.7"/><ellipse class="cls-17" cx="240.04" cy="234.45" rx="14.55" ry="7.7"/><path class="cls-9" d="M344,518s25-13,25-36c0,0-20-38-59-19,0,0-17,5-19,22,0,0,1,20,18,22l9,11Z" transform="translate(-173.77 -164)"/><circle class="cls-18" cx="239.23" cy="206" r="60"/><rect class="cls-19" x="385.4" y="303.36" width="25" height="116" transform="translate(94.36 -324.24) rotate(33.78)"/><rect class="cls-19" x="429.27" y="327.66" width="9.57" height="116" transform="translate(113.98 -340.24) rotate(33.78)"/><rect class="cls-19" x="373.62" y="298.84" width="8.53" height="95.25" transform="translate(82.7 -315.62) rotate(33.78)"/><path class="cls-20" d="M413.5,302a68.48,68.48,0,0,0-51.8,113.3l-51.79,51.79,12,12,52.41-52.42A68.5,68.5,0,1,0,413.5,302Zm0,125A56.5,56.5,0,1,1,470,370.5,56.51,56.51,0,0,1,413.5,427Z" transform="translate(-173.77 -164)"/><path class="cls-21" d="M297.58,490s29.93,6,45.5-12c0,0,15.57-23,0-37,0,0-32.33-15-49.1,14C294,455,278.42,482,297.58,490Z" transform="translate(-173.77 -164)"/><path class="cls-10" d="M340,521s24-12,30-36c0,0,7-16-15-25,0,0-25-15-24,15,0,0,7,7,16,8,0,0-28,0-29,24v14Z" transform="translate(-173.77 -164)"/><path class="cls-22" d="M279,501s42-11,87,24c0,0-12,82-51,165,0,0-16,14-43,9,0,0-26-10-30-65C242,634,253,538,279,501Z" transform="translate(-173.77 -164)"/><ellipse class="cls-23" cx="302.23" cy="300" rx="19" ry="10"/><g class="cls-24"><ellipse class="cls-25" cx="302.23" cy="307" rx="19" ry="10"/></g><g class="cls-24"><ellipse class="cls-26" cx="301.23" cy="288" rx="19" ry="10"/></g></g><g id="Layer_1" data-name="Layer 1"><rect class="cls-2" x="115.2" y="484.32" width="29.77" height="168.03" rx="2.75"/><g class="cls-27"><rect class="cls-28" x="108.91" y="511.21" width="42.03" height="16.22"/></g><rect class="cls-3" x="80.1" y="461.06" width="35.1" height="191.29" rx="3.44"/><g class="cls-29"><rect class="cls-30" x="73.06" y="477.39" width="47.05" height="6.72"/></g><rect class="cls-31" x="54.71" y="503.52" width="25.39" height="150.11" rx="1.78"/><rect class="cls-4" x="190.08" y="641.44" width="26.57" height="181.79" rx="2.87" transform="translate(-33.02 -189.13) rotate(10.79)"/><g class="cls-32"><rect class="cls-33" x="198.75" y="659.26" width="34.89" height="4.96" transform="translate(-70.6 -189.18) rotate(8.75)"/><rect class="cls-33" x="174.96" y="787.31" width="34.89" height="4.96" transform="translate(-51.4 -184.08) rotate(8.75)"/></g><rect class="cls-34" x="64.63" y="525.72" width="4.16" height="114.37"/><path class="cls-35" d="M345,573H630.5a27.74,27.74,0,0,1,27.74,27.74V792l-341-1.6V600.74A27.74,27.74,0,0,1,345,573Z" transform="translate(-173.77 -164)"/><rect class="cls-5" x="162.04" y="434.18" width="301.28" height="183.08" rx="6.04"/><g class="cls-36"><path class="cls-37" d="M331.54,674.57l59.86-80.66h23q-41.76,60.5-83.54,121Z" transform="translate(-173.77 -164)"/><path class="cls-37" d="M333.47,743.38,448.05,584.63l38.4,17.28L364.19,782.75l-34.89,1.6Z" transform="translate(-173.77 -164)"/><path class="cls-37" d="M530.84,780,637.1,638.72l24.32,1.71L550,788.51Z" transform="translate(-173.77 -164)"/></g><path class="cls-6" d="M115.1,625.79H512.4a0,0,0,0,1,0,0v21a7.57,7.57,0,0,1-7.57,7.57H122.66a7.57,7.57,0,0,1-7.57-7.57v-21A0,0,0,0,1,115.1,625.79Z"/><g class="cls-38"><path class="cls-39" d="M261.15,618.5H363.89a0,0,0,0,1,0,0v15.12a3.07,3.07,0,0,1-3.07,3.07H264.22a3.07,3.07,0,0,1-3.07-3.07V618.5A0,0,0,0,1,261.15,618.5Z"/></g></g><g id="Layer_4" data-name="Layer 4"><circle class="cls-40" cx="313.23" cy="524" r="58.5"/><path class="cls-41" d="M511.1,707.15,494.48,689.3l17.85-16.62a3.62,3.62,0,0,0,.18-5.11l-3.26-3.49a3.61,3.61,0,0,0-5.1-.18L486.3,680.52l-16.62-17.85a3.62,3.62,0,0,0-5.11-.18l-3.49,3.26a3.61,3.61,0,0,0-.18,5.1l16.62,17.85-17.85,16.62a3.62,3.62,0,0,0-.18,5.11l3.26,3.49a3.61,3.61,0,0,0,5.1.18l17.85-16.62,16.62,17.85a3.62,3.62,0,0,0,5.11.18l3.49-3.26A3.61,3.61,0,0,0,511.1,707.15Z" transform="translate(-173.77 -164)"/></g></svg>