<svg width="53" height="51" viewBox="0 0 53 51" fill="none" xmlns="http://www.w3.org/2000/svg">
<ellipse cx="26.5" cy="25.3574" rx="26.5" ry="25" fill="#FE933E"/>
<path d="M20.96 22.0974C21.0133 20.5908 21.48 19.4374 22.36 18.6374C23.24 17.8241 24.4667 17.4174 26.04 17.4174C27.0667 17.4174 27.94 17.5974 28.66 17.9574C29.3933 18.3041 29.9467 18.7841 30.32 19.3974C30.6933 19.9974 30.88 20.6774 30.88 21.4374C30.88 22.3441 30.66 23.0708 30.22 23.6174C29.78 24.1508 29.28 24.5108 28.72 24.6974V24.7774C30.3333 25.3774 31.14 26.5241 31.14 28.2174C31.14 29.0574 30.9467 29.7974 30.56 30.4374C30.1733 31.0774 29.6133 31.5774 28.88 31.9374C28.1467 32.2974 27.2733 32.4774 26.26 32.4774C24.5933 32.4774 23.2733 32.0774 22.3 31.2774C21.34 30.4641 20.84 29.2241 20.8 27.5574H24.62C24.5933 28.0908 24.7067 28.5041 24.96 28.7974C25.2133 29.0908 25.5933 29.2374 26.1 29.2374C26.4867 29.2374 26.7867 29.1174 27 28.8774C27.2267 28.6374 27.34 28.3174 27.34 27.9174C27.34 27.4108 27.1733 27.0374 26.84 26.7974C26.52 26.5574 25.9933 26.4374 25.26 26.4374H24.56V23.2574H25.24C25.7467 23.2708 26.1733 23.1908 26.52 23.0174C26.88 22.8308 27.06 22.4641 27.06 21.9174C27.06 21.5041 26.96 21.1974 26.76 20.9974C26.56 20.7841 26.2867 20.6774 25.94 20.6774C25.5533 20.6774 25.2667 20.8174 25.08 21.0974C24.9067 21.3641 24.8067 21.6974 24.78 22.0974H20.96Z" fill="white"/>
</svg>
