<svg width="53" height="51" viewBox="0 0 53 51" fill="none" xmlns="http://www.w3.org/2000/svg">
<ellipse cx="26.5" cy="25.3574" rx="26.5" ry="25" fill="#FE933E"/>
<path d="M21.66 29.2174C22.9533 28.2041 24.0133 27.3308 24.84 26.5974C25.6667 25.8641 26.36 25.1108 26.92 24.3374C27.48 23.5508 27.76 22.8041 27.76 22.0974C27.76 21.6708 27.66 21.3374 27.46 21.0974C27.2733 20.8574 26.9933 20.7374 26.62 20.7374C26.2333 20.7374 25.9333 20.9041 25.72 21.2374C25.5067 21.5574 25.4067 22.0308 25.42 22.6574H21.62C21.66 21.4708 21.92 20.4908 22.4 19.7174C22.88 18.9308 23.5067 18.3574 24.28 17.9974C25.0533 17.6241 25.9133 17.4374 26.86 17.4374C28.5 17.4374 29.72 17.8441 30.52 18.6574C31.32 19.4708 31.72 20.5241 31.72 21.8174C31.72 23.2041 31.2533 24.5041 30.32 25.7174C29.4 26.9308 28.2467 28.0174 26.86 28.9774H31.86V32.1574H21.66V29.2174Z" fill="white"/>
</svg>
